<svg version="1.2" xmlns="http://www.w3.org/2000/svg" viewBox="0 0 582 548" width="582" height="548"><style></style><path fill-rule="evenodd" d="m177.5 6.1c3.4-0.4 29.5 2.3 37.5 3.9 25.4 5.3 54.3 18.7 72.8 33.7l4.3 3.5 7.2-5.4c14.7-11 27.6-18.1 43.9-24.2 58.6-21.9 123.9-11.1 172.4 28.5 10.7 8.7 24.4 23.7 32.4 35.5 27.3 40.1 36.8 89.3 26.4 136.3-5.7 25.4-15.8 47.2-31.7 68.6-3.8 5.1-50.5 52.6-128.3 130.5l-122.4 122.5-118.6-118.5c-65.2-65.2-122-122.6-126.2-127.5-19.1-22.6-31.8-48.9-38.3-79.5-2-9.1-2.3-13.5-2.3-33-0.1-24.3 0.7-30.3 6.3-49.8 19.8-68.7 81.7-118.9 153.1-124.1 5.8-0.5 11-0.9 11.5-1zm-20.8 29.4c-78.9 12.9-133 85.7-122.2 164.5 3.5 25.6 13.1 49.2 28.2 69 5.1 6.7 39.5 41.8 118.2 120.5l111.1 111 113.9-114c100.7-100.8 114.5-115.1 120-123.4 12.2-18.4 19.6-37.1 23.3-58.6 1.7-10.1 1.9-14.7 1.5-29-0.6-18.6-1.9-26.1-7.3-42.5-14.2-42.7-48.7-77.2-91.5-91.4-18.2-6.1-25.1-7.1-47.4-7.1-17.3 0-21.4 0.3-30.5 2.3-27.8 6.3-51.1 18.8-71.8 38.6l-9.7 9.3-9.3-8.7c-21.3-20.1-43.6-32.2-71.2-38.7-13.5-3.1-41.5-4.1-55.3-1.8z"/></svg>